# xmcd
#
# Track frame offsets: 
#        150
#        17248
#        33443
#        48309
#        61183
#        75328
#        91757
#        108962
#        125521
#        142054
#        155746
#        168878
#
# Disc length: 2308 seconds
#
# Revision: 0
# Processed by: cddbd v1.5.2PL0 Copyright (c) Steve Scherf et al.
# Submitted via: ExactAudioCopy v0.99pb5
#
DISCID=9109020c
DTITLE=Sharon Cuneta - DJ's Pet
DYEAR=2003
DGENRE=OPM
TTITLE0=Mr. D.J.
TTITLE1=Naaalala Ka
TTITLE2=Kahit Maputi Na Ang Buhok Ko
TTITLE3=Kung Ako'y...
TTITLE4=Mahal Mo Pa Ba Ako
TTITLE5=Ikaw Lamang
TTITLE6=Takot Akong Umibig
TTITLE7=Nalilito Ako
TTITLE8=Ganyan Kaya (Ang Umibig)
TTITLE9=Tanging Hiling
TTITLE10=Tawag Ng Pag-Ibig
TTITLE11=Mr. D.J. (Reprise)
EXTD=
EXTT0=
EXTT1=
EXTT2=
EXTT3=
EXTT4=
EXTT5=
EXTT6=
EXTT7=
EXTT8=
EXTT9=
EXTT10=
EXTT11=
PLAYORDER=
